<svg xmlns="http://www.w3.org/2000/svg" xmlns:xlink="http://www.w3.org/1999/xlink" viewBox="0 0 906.58 983.35"><defs><style>.cls-1{fill:#c9bede;}.cls-2{fill:#3a3f48;}.cls-3{fill:#247dff;}.cls-30,.cls-34,.cls-35,.cls-36,.cls-38,.cls-4,.cls-43,.cls-5{fill:none;}.cls-4,.cls-43{stroke:#fff;}.cls-29,.cls-30,.cls-35,.cls-36,.cls-4,.cls-43{stroke-miterlimit:10;}.cls-4{stroke-width:0.81px;}.cls-5{stroke:#a8c1ef;stroke-width:1.5px;stroke-dasharray:10.82;}.cls-34,.cls-36,.cls-38,.cls-5{stroke-linecap:round;}.cls-34,.cls-38,.cls-5{stroke-linejoin:round;}.cls-6,.cls-7{fill:#e4f2ea;}.cls-6{opacity:0.7;isolation:isolate;}.cls-8{fill:#2c799b;}.cls-9{fill:#78c2ea;}.cls-10{fill:#59a7c9;}.cls-11{fill:#7ccfe0;}.cls-12{fill:#fff;}.cls-13{fill:#fda6c8;}.cls-14{fill:#6f47dd;}.cls-15{fill:#dc3701;}.cls-16{fill:url(#linear-gradient);}.cls-17{fill:#4053f2;}.cls-18{fill:#3b00bf;}.cls-19{fill:#fdb2d0;}.cls-20{fill:#e079a8;}.cls-21{fill:#050505;}.cls-22{fill:#c2d3ff;}.cls-23{fill:#d7e3ff;}.cls-24{fill:#f5f9ff;}.cls-25{fill:#100f51;}.cls-26{fill:#161668;}.cls-27,.cls-29{fill:#fefefe;}.cls-28{fill:#020001;}.cls-29,.cls-38{stroke:#000;}.cls-29,.cls-34,.cls-35{stroke-width:2px;}.cls-30,.cls-35{stroke:#b2b2b2;}.cls-30{stroke-width:1.71px;}.cls-31{fill:#ff84b3;}.cls-32{fill:#1a137e;}.cls-33{fill:#b79a5e;}.cls-34{stroke:#1a137e;}.cls-36{stroke:#3b00bf;stroke-width:3px;}.cls-37{fill:#ff9398;}.cls-38{stroke-width:1.82px;}.cls-39{fill:#303d73;}.cls-40{fill:#ffb1b2;}.cls-41{fill:#1ed760;}.cls-42{fill:#410fba;}.cls-43{stroke-width:0.57px;}.cls-44{fill:#f79e29;}</style><linearGradient id="linear-gradient" x1="691.04" y1="454.71" x2="896.96" y2="382.6" gradientTransform="matrix(-1, 0, 0, 1, 1384.96, 208)" gradientUnits="userSpaceOnUse"><stop offset="0.09" stop-color="#ff8415"/><stop offset="1" stop-color="#dc3701"/></linearGradient></defs><title>Asset 1</title><g id="Layer_2" data-name="Layer 2"><g id="Layer_1-2" data-name="Layer 1"><g id="Layer_2-2" data-name="Layer 2"><path class="cls-1" d="M582.49,164.59a11.59,11.59,0,0,1,15.88-3.6l49.39,30.83a11.61,11.61,0,0,1,3.61,15.89l-15.75,25.23a11.6,11.6,0,0,1-15.89,3.6L570.34,205.7a11.59,11.59,0,0,1-3.6-15.88Z"/><path class="cls-2" d="M596,175.67,604,207l31.64-6.54L652.3,197a11.08,11.08,0,0,0-4.4-5.21L598.51,161a11.57,11.57,0,0,0-6.81-1.74Z"/><polygon class="cls-3" points="598.24 160.85 598.24 160.85 593.84 167.79 593.84 167.79 593.84 167.79 593.84 167.79 595.84 175.67 603.98 207.04 635.62 200.5 642.83 199.03 643.09 198.5 643.09 198.5 658.71 173.53 609.59 142.7 598.24 160.85"/><line class="cls-4" x1="614.53" y1="159.12" x2="643.23" y2="177.4"/><line class="cls-4" x1="609.99" y1="166.59" x2="638.69" y2="184.75"/><line class="cls-4" x1="605.45" y1="174.47" x2="634.15" y2="192.76"/><path class="cls-5" d="M290.29,28S151.46,45.25,95.39,159.12,283.21,242,334.2,269s-12.28,85.16-12.28,85.16"/><polyline class="cls-6" points="317.92 40.58 377.59 6.94 313.38 29.77"/><polygon class="cls-7" points="349.95 13.35 314.85 28.03 309.11 14.55 349.95 13.35"/><polygon class="cls-8" points="349.95 13.35 314.85 28.03 309.11 14.55 349.95 13.35"/><polygon class="cls-9" points="290.29 38.04 299.23 23.09 349.95 13.35 309.11 14.55 320.72 0 377.59 6.94 290.29 38.04"/><polygon class="cls-7" points="313.38 29.77 317.92 40.58 377.59 6.94 313.38 29.77"/><polygon class="cls-10" points="313.38 29.77 317.92 40.58 377.59 6.94 313.38 29.77"/><path class="cls-11" d="M53.48,306.49a10.14,10.14,0,0,1,10.14-10.15h102a10.14,10.14,0,0,1,10.14,10.15v22.69a10.14,10.14,0,0,1-10.14,10.15h-102a10.14,10.14,0,0,1-10.14-10.15Z"/><circle class="cls-12" cx="151.73" cy="317.83" r="9.88"/><rect class="cls-12" x="68.7" y="310.36" width="67.41" height="1.87"/><rect class="cls-12" x="96.86" y="316.63" width="39.25" height="1.87"/><rect class="cls-12" x="87.12" y="323.31" width="48.99" height="1.87"/><path class="cls-13" d="M369,372.7c6.41,8.54-22.16,45.12-22.16,45.12s-76.62,122.94-115.46,76.35-13.89-216.78-13.89-216.78l32.71,4.8s10.41,137.9,15.48,143.9,95.85-71.81,95.85-71.81A42.49,42.49,0,0,0,369,372.7Z"/><path class="cls-14" d="M266,172.6l-34.44-.13a9,9,0,0,0-9.21,8.67l-4.67,96.25a9.1,9.1,0,0,0,8.94,9.61l33.11.8a9,9,0,0,0,9.34-8.54l6-96.92A9.23,9.23,0,0,0,266,172.6Z"/><path d="M259.72,288.87l-33.11-.8a9.83,9.83,0,0,1-7.21-3.21,10.15,10.15,0,0,1-2.67-7.47l4.68-96.25a10.14,10.14,0,0,1,10.14-9.74h0l34.44.13a9.61,9.61,0,0,1,7.34,3.21,10.61,10.61,0,0,1,2.67,7.6l-6,96.92a10.16,10.16,0,0,1-10.28,9.61ZM223.41,181.14l-4.67,96.25a8.09,8.09,0,0,0,2.13,6,7.65,7.65,0,0,0,5.74,2.54l33.11.8a8,8,0,0,0,8.27-7.61l6-96.91h0a7.81,7.81,0,0,0-2.14-6,7.94,7.94,0,0,0-5.87-2.53l-34.57-.14h0A8,8,0,0,0,223.41,181.14Z"/><circle cx="233.29" cy="182.74" r="2.94"/><path class="cls-13" d="M209.12,219.59c-3.47,9.74.81,10.41.81,10.41-4.94,9.21-.27,10.81-.27,10.81-4.14,6.81.8,10.95.8,10.95-1.47,5.2,1.2,7.07,1.2,7.87s5.47,20.43,5.47,20.43l1.34-19.36c5.07.94,16.15-7.07,16.95-12.28s-2.67-5.61-2.67-5.61a8.6,8.6,0,0,0,2.27-6.94,4.2,4.2,0,0,0-4.54-3.47,9,9,0,0,0,3.87-6.81c.14-4.4-5.34-4.94-5.34-4.94s5.21-4,2.94-8.67C230,207.84,212.33,210.11,209.12,219.59Z"/><path class="cls-15" d="M177.76,557.18,402.55,344.8s35.64-65.81,157.38-32c11.21,3.07,23,9.75,34.84,19.22,117.34,94.11,245,470.55-82,506.86-31,0-157.25,11.48-251.89-33.38A213.62,213.62,0,0,1,214.2,775.7C120.89,696.67,177.76,557,177.76,557.18Z"/><path class="cls-16" d="M421.24,701.88c16.55-34.71,35.64-66,35.64-66S525,411.54,552.05,366.82c12.29-20.15,28.57-30,42.72-34.84,117.34,94.11,245,470.55-82,506.86-31,0-157.25,11.48-251.89-33.38C354.09,812.54,405.75,734.58,421.24,701.88Z"/><path class="cls-17" d="M236.22,497.91l29.5-71.82L351.29,363c4.4-24.83,54.06-25.23,54.06-25.23,5.74-5.74,23.09-18.55,23.09-18.55h42.72s64.74,31.64,80,39,17,17.88,17,17.88L611.86,547.7Z"/><path class="cls-18" d="M630.54,579.74l-77-55.13s-.26-24.17,28-20.43,49.25,21,50.32,26.83-1.34,48.73-1.34,48.73"/><path class="cls-19" d="M424.57,307.69l28.84-37.38,23.49,1.87a42.27,42.27,0,0,0-1.07,5.07c-1.33,7.75-3.87,26.3-6.14,68.22C466.36,408.2,441,418,441,418s-.26-.13-.4-.27c-4.8-3.33-14.95-32.57-14.95-43.92,0-11.61,4.14-39.64,5.47-51S424.71,307.82,424.57,307.69Z"/><path class="cls-20" d="M454.21,364.69c1.87-29.64,0-76.36,0-76.36l19-11.61,2.67.53c-1.33,7.75-3.87,26.3-6.14,68.22C466.36,408.2,441,418,441,418s-.26-.13-.4-.27C445.66,405.27,453,383.91,454.21,364.69Z"/><path class="cls-13" d="M391.07,501.38l17.22,14.15,26.16-5.87s107.19,88.63,146.7,89,68.75-7.87,35.38-44.32-190.75-65-190.75-65C419.37,488.16,391.07,501.38,391.07,501.38Z"/><polyline class="cls-21" points="387.46 498.71 206.59 498.71 254.64 559.71 461.55 556.11 387.46 498.71"/><path class="cls-22" d="M190.7,357.48c8.55,0,86.64-2.14,131.09-3.34,18.15-.4,30.7-.8,30.7-.8s9.88-2.94,12.28,15.22,22.69,130.15,22.69,130.15H206.59L181.23,373.9S179,357.48,190.7,357.48Z"/><path class="cls-23" d="M352.09,352.81c-8.41-.4-112.93,4.27-159.25,4.67L336.07,498.71h51.39L365.17,370.83S365.44,353.21,352.09,352.81Z"/><ellipse class="cls-24" cx="279.89" cy="433.45" rx="12.28" ry="14.15" transform="translate(-51.91 38.32) rotate(-7.17)"/><path class="cls-25" d="M102.74,466.81c101.71-15.36,204.5,80.62,212.77,88.5l.54.53L299,593.49c-13.61-7.88-100.38-23.9-100.38-23.9,10.81,24.56,15.35,102.12,22.56,155.51S274.4,831.36,274.4,831.36c-25.1-.53-54.73,33.1-54.73,33.1-1.73-5.2-14-3.47-14-3.47a12.79,12.79,0,0,0-.26-2.93c-3.74-20.16-40-95.58-62.21-140.3C97,658,96.46,518.73,96.46,508.45S91.26,485.63,102.74,466.81Z"/><path class="cls-19" d="M208.32,847.11c11.62-8,24-16.55,36.85-25,4.8-3.07,9.61-6.54,14.41-10.15,8.41,12,14.82,19.36,14.82,19.36-25.1-.53-54.73,33.1-54.73,33.1-1.73-5.2-14-3.47-14-3.47a12.79,12.79,0,0,0-.26-2.93C206.32,854.72,207.26,851,208.32,847.11Z"/><path d="M210.73,788.78C199.11,766.49,145.32,553.57,142,538.62s-18.29-43.92-8.28-52.19c8.55-7.08,141.77,51.12,181.81,68.74l.54.54L299,593.35c-13.61-7.87-100.38-23.89-100.38-23.89C209.39,594,213.93,671.58,221.14,725c2.54,19.36,10.28,38.71,19.09,55.4a293.14,293.14,0,0,0,19.35,31.5c-4.94,3.61-9.74,7.08-14.41,10.15-12.82,8.41-25.23,17-36.85,25,3.34-13.62,6.41-30.17,5.74-43.39A37.18,37.18,0,0,0,210.73,788.78Z"/><path class="cls-26" d="M276.94,635c16.82-43.12,31.9-128.41,96.64-119.2s95.45,8,184.61,55.79c0,0,32.31,13.35,24.3,36.31a34.91,34.91,0,0,1-5.07,9.08c-21.63,28.57-65.95,47.79-132.29,13.48s-59.4-29.63-59.4-29.63,4.4,67.68-14.82,95.84-76.62,93.18-125.74,125.48c-18.69,12.28-37,24.83-52.33,35.77-3.74-10.94-12.55-32.43-31-51.92C191.77,766.35,263.85,668.91,276.94,635Z"/><path d="M214.06,803.59c8.95-7.87,17.76-15.61,26.17-23.22,35.37-32,66.07-59.4,71.55-70.08,22.29-43.79,23.22-99.45,34.84-145s48.05-34.84,70.48-28.17c18,5.34,124.68,52.6,165.52,70.75a34.61,34.61,0,0,1-5.07,9.08c-21.62,28.57-65.94,47.79-132.29,13.48s-59.4-29.63-59.4-29.63,4.41,67.68-14.81,95.84C353.56,722,305.1,777.56,259.58,811.87c-4.94,3.61-9.74,7.08-14.41,10.15-12.82,8.41-25.23,17-36.85,25-5.34,3.87-10.54,7.47-15.48,10.94a144.5,144.5,0,0,0-12.15-26.56C191.91,822.42,203.12,812.94,214.06,803.59Z"/><path class="cls-27" d="M102.07,921.46C98.73,918,53.61,869.4,44.8,857c-.67-.8-1.33-1.74-2-2.67C32.79,840.44,14,814.67,6.89,780.1,2.09,756.87-.72,741.26,4,735.52c1.74-2.14,4.54-3.21,9.08-3.21h.54l133.75,95.31,11.75,53.13c-11.75,9.88-34,28.43-38,30.57a26.3,26.3,0,0,0-3.47,2.54c-.66.53-1.2,1.06-1.87,1.6-3.47,3.07-7.34,6.54-11.34,6.54A4.41,4.41,0,0,1,102.07,921.46Z"/><path d="M12.9,733.51h0L146,828.29l11.48,51.79c-13.35,11.35-33.51,28-37.11,29.9a16.94,16.94,0,0,0-3.74,2.67c-.67.54-1.2,1.07-1.87,1.61-3.2,2.93-6.94,6.27-10.41,6.27a3.92,3.92,0,0,1-1.74-.27c-4.67-5.07-48.32-52.19-57-64.2-.66-.81-1.33-1.74-2-2.67C33.59,839.64,15,814,8,779.7c-4.67-22.83-7.48-38.18-3.2-43.52.93-1.06,2.8-2.67,8.14-2.67h0m0-2.67c-16.42.14-15.09,12.95-7.48,49.53,7.75,37.24,28.84,64.47,38.18,77.42s57.53,64.88,57.53,64.88a7.72,7.72,0,0,0,3.34.8c5.21,0,10-5.08,14-8.55a16.1,16.1,0,0,1,3.33-2.4c5.34-2.94,38.85-31.37,38.85-31.37l-12.15-54.46L14,730.84Z"/><path class="cls-28" d="M12.9,730.71H14l134.55,95.84L160.67,881s-33.51,28.56-38.85,31.37a15.74,15.74,0,0,0-3.33,2.4C99.8,898.77-1.65,806.53,12.9,730.71Z"/><path class="cls-28" d="M140.11,948.7A49.89,49.89,0,0,1,152,937.88s46.46-41.11,53.53-77l65.28-33.77,27.49,23a8.71,8.71,0,0,1,3.88,4c2.53,4.94,3.33,15.09-9.88,34.71C270.8,920.53,190.84,1013,134,972.06,131.44,967.12,132.9,957.91,140.11,948.7Z"/><path class="cls-29" d="M140.11,948.7c20.16-11.08,58.07-21.5,80-29.77C248.9,908,260.65,884.09,274,864.33c7.48-11.08,19.36-11.75,28.17-10.28,2.53,4.94,3.33,15.09-9.88,34.71C270.8,920.53,190.84,1013,134,972.06,131.44,967.12,132.9,957.91,140.11,948.7Z"/><path class="cls-18" d="M471.56,319,457,402.6c9.88-1.34,15.89-13.35,16.42-22.69s6.41-9.62,9.34-9.62c11.75,5.08,21.9,29,21.9,29v-56.2c0-10.68-6-12.28-6-12.28Z"/><path class="cls-18" d="M428.58,390.72c-10.15,0-13.88-22.69-12.95-27.63a6.1,6.1,0,0,0-2.94-6.81,27.47,27.47,0,0,1-12.81,8.81,126.59,126.59,0,0,1,8.81-11.48c6.54-7.88,12.95-25.76,14.55-31.5s8-4.14,8-4.14Z"/><ellipse class="cls-30" cx="392.8" cy="229.46" rx="10.55" ry="16.82"/><path class="cls-19" d="M373.45,238.94c-.54-6.27,20.15-10.54,20.15-10.54s4-36.85,17.63-44.85L434.32,187l56.2,8.54,1.33,53.13a24.09,24.09,0,0,1,3.34,25c-6.14,14.55-13.62,21-24.16,7.61,0,0-36.85,37.64-70.48,27.9a42,42,0,0,1-16.16-9.08l2.94-49.66S374,245.35,373.45,238.94Z"/><path class="cls-31" d="M431.52,285.66C443.13,273.78,444.86,220,446.2,207c.8-7.74-6.28-15.35-12-20l56.2,8.54,1.34,53.13a24.09,24.09,0,0,1,3.34,25c-6.15,14.55-13.62,21-24.17,7.61,0,0-36.84,37.64-70.48,27.9C411,304,423.37,294.07,431.52,285.66Z"/><path class="cls-32" d="M388.93,206.77c-.93.27-3.2,4.94.94,4.41s6.27.66,11.21,4c3.07-2.4,2.27-5.6-3.74-8.27C392.4,204.77,389.87,206.51,388.93,206.77Z"/><path class="cls-33" d="M473.83,257.23c-6.14,5.87-14.15,3.2-19.49-.27s-.67-11.88,3.34-15.48S459,230.93,459,230.93s-16.55-6.67-16.28-19.22,29.37-9.34,29.37-9.34-9.75-10-59-15.09S369.58,151.64,376.52,134s36.17-13.35,40.85-6.81,20.69,15.49,20.69,15.49,5.07-7.88,33-3.21,24.16,38,24.16,38,25.63,9.08,27.5,40.85-29.37,47.25-29.37,47.25S480,251.22,473.83,257.23Z"/><path class="cls-32" d="M414.3,206.1c-1.34,0-5.88,5.74-.27,6.55s8,3.33,13.21,9.87c4.94-2.27,5.08-7.2-1.87-13.08C419.63,204.64,415.63,206.1,414.3,206.1Z"/><path class="cls-34" d="M421.1,264.44a16.37,16.37,0,0,1-17.62,3.34"/><line class="cls-35" x1="428.58" y1="231.6" x2="461.55" y2="245.08"/><line class="cls-35" x1="393.74" y1="225.99" x2="399.61" y2="226.66"/><ellipse class="cls-35" cx="414.03" cy="229.46" rx="14.55" ry="16.82"/><ellipse class="cls-32" cx="414.39" cy="231.97" rx="6.41" ry="2.14" transform="translate(123.42 607.29) rotate(-81.45)"/><line class="cls-36" x1="535.64" y1="418.75" x2="548.58" y2="514.99"/><line class="cls-36" x1="539.77" y1="448.78" x2="523.49" y2="423.96"/><path class="cls-36" d="M403.88,491.1c-.4-20.29,26.17-32,26.17-32-10.15-12.14,8.41-14.15,8.41-14.15l-3.21-21"/><path class="cls-31" d="M180.43,831.49a135.76,135.76,0,0,1,12.14,26.57c-7.87,5.6-15.08,10.81-21.22,15.22l-2.81,2c-11.34,8.27-17.88,14.15-17.88,14.15L134,865.4C148.92,855.65,164.81,844,180.43,831.49Z"/><path class="cls-19" d="M142.11,822.15l6.81.93s4.94-6.54,13-17.08a132.2,132.2,0,0,1,18.82,25.23c-16,12.68-31.9,24.42-46.72,34l-8.81-12.69S149.32,840.7,142.11,822.15Z"/><path class="cls-37" d="M819.7,712.82H704.63C693,725.5,693.55,831.36,693.55,831.36h134C834.38,772.09,819.7,712.82,819.7,712.82Z"/><line class="cls-38" x1="746.15" y1="700.14" x2="755.49" y2="313.03"/><line class="cls-38" x1="756.56" y1="700.14" x2="778.98" y2="264.44"/><line class="cls-38" x1="801.14" y1="534.48" x2="798.07" y2="696.67"/><line class="cls-38" x1="776.45" y1="700.14" x2="778.98" y2="419.15"/><path class="cls-39" d="M756.56,411.27c7.74,8,75.42,54.87,94.91,64.75s8.14-28.3-12.28-79.56S779,343.73,765.37,352C730.66,373,748.81,403.27,756.56,411.27Z"/><path class="cls-39" d="M851.47,675.58c3.87-98.65-46.72-113.33-83.7-86.9C672.06,657.16,847.6,774.23,851.47,675.58Z"/><path class="cls-40" d="M693.82,700.14C695,719.76,704.9,721,704.9,721s116,.26,122.81-1.34S836,700.14,836,700.14s-20.15.54-79.42,0Z"/><path class="cls-41" d="M771.64,715.76c10.81,24,39.11,35.37,98,72.08s27.5-42.18,6.41-92.64-55.8-56.73-82.36-46.58C756.56,662.9,760.83,691.73,771.64,715.76Z"/><path class="cls-41" d="M618.4,659.43C602.25,727,638.55,722,654.71,716.69S706.1,675.58,758,633.93s47-100.25,0-108.26C642.83,506.05,634.55,591.88,618.4,659.43Z"/><path class="cls-41" d="M871.22,596.29c56.87,45.12,31.77-37.24,16.15-84.77s-61.4-83-92.23-56.86C730.79,509,814.36,551.17,871.22,596.29Z"/><path class="cls-41" d="M614.26,488.3c-13.35,40.18,82.9-11.22,122.14-27.9s55.53-63.41,10.81-85.7C675.13,339.06,627.61,448.25,614.26,488.3Z"/><path class="cls-41" d="M704.63,333.05c-12.15-4.4-55.4-17.22-63.27-29s38.71-24.42,63.27-29.36,58.07.53,56.73,33.37C759.89,345.87,716.78,337.59,704.63,333.05Z"/><path class="cls-39" d="M795.14,267.51c-19.76,9.88-29.24,7.87-29.77-19.09s53.13-35.91,82.76-16.69C864.82,242.41,814.76,257.63,795.14,267.51Z"/><path class="cls-42" d="M157.6,148.71a7.1,7.1,0,0,1,2.27-9.75L190,120.14a7.09,7.09,0,0,1,9.74,2.27l9.61,15.35a7.09,7.09,0,0,1-2.27,9.74L177,166.33a7.1,7.1,0,0,1-9.74-2.27Z"/><polyline class="cls-43" points="157.06 142.16 186.57 148.17 193.91 118.94"/><circle class="cls-44" cx="156.8" cy="141.76" r="5.74"/></g></g></g></svg>