<?xml version="1.0" encoding="utf-8"?>
<!-- Generator: Adobe Illustrator 24.0.1, SVG Export Plug-In . SVG Version: 6.00 Build 0)  -->
<svg version="1.1" id="Layer_1" xmlns="http://www.w3.org/2000/svg" xmlns:xlink="http://www.w3.org/1999/xlink" x="0px" y="0px"
	 viewBox="0 0 1000 1000" style="enable-background:new 0 0 1000 1000;" xml:space="preserve">
<style type="text/css">
	.st0{fill:#C9BEDE;}
	.st1{fill:#3A3F48;}
	.st2{fill:#247DFF;}
	.st3{fill:none;stroke:#FFFFFF;stroke-width:0.8095;stroke-miterlimit:10;}
	
		.st4{fill:none;stroke:#A8C1EF;stroke-width:1.5;stroke-linecap:round;stroke-linejoin:round;stroke-miterlimit:10;stroke-dasharray:10.8185;}
	.st5{opacity:0.7;fill:#E4F2EA;enable-background:new    ;}
	.st6{fill:#E4F2EA;}
	.st7{fill:#2C799B;}
	.st8{fill:#78C2EA;}
	.st9{fill:#59A7C9;}
	.st10{fill:#7CCFE0;}
	.st11{fill:#FFFFFF;}
	.st12{fill:#FDA6C8;}
	.st13{fill:#6F47DD;}
	.st14{fill:#DC3701;}
	.st15{fill:url(#SVGID_1_);}
	.st16{fill:#4053F2;}
	.st17{fill:#3B00BF;}
	.st18{fill:#FDB2D0;}
	.st19{fill:#E079A8;}
	.st20{fill:#050505;}
	.st21{fill:#C2D3FF;}
	.st22{fill:#D7E3FF;}
	.st23{fill:#F5F9FF;}
	.st24{fill:#100F51;}
	.st25{fill:#161668;}
	.st26{fill:#FEFEFE;}
	.st27{fill:#020001;}
	.st28{fill:#FEFEFE;stroke:#000000;stroke-width:2;stroke-miterlimit:10;}
	.st29{fill:none;stroke:#B2B2B2;stroke-width:1.7093;stroke-miterlimit:10;}
	.st30{fill:#FF84B3;}
	.st31{fill:#1A137E;}
	.st32{fill:#B79A5E;}
	.st33{fill:none;stroke:#1A137E;stroke-width:2;stroke-linecap:round;stroke-linejoin:round;stroke-miterlimit:10;}
	.st34{fill:none;stroke:#B2B2B2;stroke-width:2;stroke-miterlimit:10;}
	.st35{fill:none;stroke:#3B00BF;stroke-width:3;stroke-linecap:round;stroke-miterlimit:10;}
	.st36{fill:#FF9398;}
	.st37{fill:none;stroke:#000000;stroke-width:1.8226;stroke-linecap:round;stroke-linejoin:round;stroke-miterlimit:10;}
	.st38{fill:#303D73;}
	.st39{fill:#FFB1B2;}
	.st40{fill:#1ED760;}
	.st41{fill:#410FBA;}
	.st42{fill:none;stroke:#FFFFFF;stroke-width:0.5675;stroke-miterlimit:10;}
	.st43{fill:#F79E29;}
</style>
<g id="Layer_3">
</g>
<g id="sketchvalley">
</g>
<g id="Layer_2_1_">
	<g>
		<g>
			<path class="st0" d="M587.1,170.6c3.3-5.3,10.5-6.9,15.9-3.6l49.4,30.8c5.3,3.3,6.9,10.5,3.6,15.9L640.2,239
				c-3.3,5.3-10.5,6.9-15.9,3.6l-49.4-30.8c-5.3-3.3-6.9-10.5-3.6-15.9L587.1,170.6z"/>
			<path class="st1" d="M600.6,181.7l8,31.4l31.6-6.5l16.7-3.5c-0.8-2.1-2.4-3.9-4.4-5.2L603.1,167c-2.1-1.3-4.5-1.9-6.8-1.7
				L600.6,181.7z"/>
			<polygon class="st2" points="602.8,166.9 602.8,166.9 598.4,173.8 598.4,173.8 598.4,173.8 598.4,173.8 600.4,181.7 608.6,213.1 
				640.2,206.5 647.4,205 647.7,204.5 647.7,204.5 663.3,179.5 614.2,148.7 			"/>
			<line class="st3" x1="619.1" y1="165.1" x2="647.8" y2="183.4"/>
			<line class="st3" x1="614.6" y1="172.6" x2="643.3" y2="190.8"/>
			<line class="st3" x1="610.1" y1="180.5" x2="638.8" y2="198.8"/>
		</g>
		<path class="st4" d="M294.9,34c0,0-138.8,17.2-194.9,131.1S287.8,248,338.8,275c51,27-12.3,85.2-12.3,85.2"/>
		<g>
			<polyline class="st5" points="322.5,46.6 382.2,13 318,35.8 			"/>
			<polygon class="st6" points="354.6,19.4 319.5,34 313.7,20.6 			"/>
			<polygon class="st7" points="354.6,19.4 319.5,34 313.7,20.6 			"/>
			<polygon class="st8" points="294.9,44.1 303.8,29.1 354.6,19.4 313.7,20.6 325.3,6 382.2,13 			"/>
			<polygon class="st6" points="318,35.8 322.5,46.6 382.2,13 			"/>
			<polygon class="st9" points="318,35.8 322.5,46.6 382.2,13 			"/>
		</g>
		<g>
			<path class="st10" d="M58.1,312.5c0-5.6,4.5-10.1,10.1-10.1h102c5.6,0,10.1,4.5,10.1,10.1v22.7c0,5.6-4.5,10.1-10.1,10.1h-102
				c-5.6,0-10.1-4.5-10.1-10.1V312.5z"/>
			<circle class="st11" cx="156.3" cy="323.8" r="9.9"/>
			<rect x="73.3" y="316.4" class="st11" width="67.4" height="1.9"/>
			<rect x="101.5" y="322.6" class="st11" width="39.2" height="1.9"/>
			<rect x="91.7" y="329.3" class="st11" width="49" height="1.9"/>
		</g>
		<g>
			<path class="st12" d="M373.7,378.7c6.4,8.5-22.2,45.1-22.2,45.1S274.9,546.8,236,500.2s-13.9-216.8-13.9-216.8l32.7,4.8
				c0,0,10.4,137.9,15.5,143.9c5.1,6,95.8-71.8,95.8-71.8S367.4,370.4,373.7,378.7z"/>
			<g>
				<path class="st13" d="M270.6,178.6l-34.4-0.1c-4.9-0.1-8.9,3.7-9.2,8.7l-4.7,96.2c-0.3,5.2,3.7,9.5,8.9,9.6l33.1,0.8
					c4.9,0.1,9.1-3.6,9.3-8.5l6-96.9C280.1,183.2,275.8,178.7,270.6,178.6z"/>
				<path d="M264.3,294.9l-33.1-0.8c-2.8,0-5.3-1.2-7.2-3.2c-1.9-2-2.8-4.7-2.7-7.5l4.7-96.2c0.3-5.5,4.7-9.7,10.1-9.7l0,0l34.4,0.1
					c2.8,0,5.5,1.1,7.3,3.2c1.9,2.1,2.8,4.8,2.7,7.6l-6,96.9C274.3,290.7,269.8,294.9,264.3,294.9
					C264.5,294.9,264.3,294.9,264.3,294.9z M228,187.2l-4.7,96.2c-0.1,2.3,0.7,4.4,2.1,6c1.5,1.6,3.5,2.5,5.7,2.5l33.1,0.8
					c4.4,0.1,8-3.2,8.3-7.6l6-96.9l0,0c0.1-2.1-0.5-4.4-2.1-6c-1.5-1.6-3.6-2.5-5.9-2.5l-34.6-0.1l0,0
					C231.8,179.5,228.1,182.9,228,187.2z"/>
			</g>
			<circle cx="237.9" cy="188.8" r="2.9"/>
			<path class="st12" d="M213.7,225.6c-3.5,9.7,0.8,10.4,0.8,10.4c-4.9,9.2-0.3,10.8-0.3,10.8c-4.1,6.8,0.8,10.9,0.8,10.9
				c-1.5,5.2,1.2,7.1,1.2,7.9s5.5,20.4,5.5,20.4l1.3-19.4c5.1,0.9,16.2-7.1,17-12.3c0.8-5.2-2.7-5.6-2.7-5.6s2.9-2.9,2.3-6.9
				c-0.8-3.9-4.5-3.5-4.5-3.5s3.7-2.4,3.9-6.8c0.1-4.4-5.3-4.9-5.3-4.9s5.2-4,2.9-8.7C234.6,213.9,216.9,216.1,213.7,225.6z"/>
			<path class="st14" d="M182.4,563.2l224.8-212.4c0,0,35.6-65.8,157.4-32c11.2,3.1,23,9.7,34.8,19.2
				c117.3,94.1,244.9,470.5-82,506.9c-31,0-157.2,11.5-251.9-33.4c-16.8-8-32.6-17.8-46.7-29.8C125.5,702.7,182.4,563.1,182.4,563.2
				z"/>
			
				<linearGradient id="SVGID_1_" gradientUnits="userSpaceOnUse" x1="695.6509" y1="460.7252" x2="901.5648" y2="388.6105" gradientTransform="matrix(-1 0 0 1 1394.1743 208)">
				<stop  offset="9.327463e-02" style="stop-color:#FF8415"/>
				<stop  offset="1" style="stop-color:#DC3701"/>
			</linearGradient>
			<path class="st15" d="M425.8,707.9c16.6-34.7,35.6-65.9,35.6-65.9s68.1-224.4,95.2-269.1c12.3-20.2,28.6-30,42.7-34.8
				c117.3,94.1,244.9,470.5-82,506.9c-31,0-157.2,11.5-251.9-33.4C358.7,818.6,410.4,740.6,425.8,707.9z"/>
			<path class="st16" d="M240.8,503.9l29.5-71.8l85.6-63.1c4.4-24.8,54.1-25.2,54.1-25.2c5.7-5.7,23.1-18.6,23.1-18.6h42.7
				c0,0,64.7,31.6,80,39c15.1,7.2,17,17.9,17,17.9l43.8,171.7L240.8,503.9z"/>
			<path class="st17" d="M635.2,585.8l-77-55.1c0,0-0.3-24.2,28-20.4c28.3,3.7,49.3,21,50.3,26.8S635.2,585.8,635.2,585.8"/>
			<path class="st18" d="M429.2,313.7l28.8-37.4l23.5,1.9c0,0-0.4,1.2-1.1,5.1c-1.3,7.7-3.9,26.3-6.1,68.2
				c-3.3,62.7-28.7,72.5-28.7,72.5c-0.1-0.1-0.3-0.1-0.4-0.3c-4.8-3.3-15-32.6-15-43.9c0-11.6,4.1-39.6,5.5-51
				C437.1,317.4,429.3,313.8,429.2,313.7z"/>
			<path class="st19" d="M458.8,370.7c1.9-29.6,0-76.4,0-76.4l19-11.6l2.7,0.5c-1.3,7.7-3.9,26.3-6.1,68.2
				c-3.3,62.7-28.7,72.5-28.7,72.5c-0.1-0.1-0.3-0.1-0.4-0.3C450.3,411.3,457.6,389.9,458.8,370.7z"/>
			<path class="st12" d="M395.7,507.4l17.2,14.1l26.2-5.9c0,0,107.2,88.6,146.7,89c39.5,0.4,68.7-7.9,35.4-44.3s-190.8-65-190.8-65
				C424,494.2,395.7,507.4,395.7,507.4z"/>
			<polyline class="st20" points="392.1,504.7 211.2,504.7 259.3,565.7 466.2,562.1 392.1,504.7 			"/>
			<path class="st21" d="M195.3,363.5c8.5,0,86.6-2.1,131.1-3.3c18.2-0.4,30.7-0.8,30.7-0.8s9.9-2.9,12.3,15.2
				s22.7,130.2,22.7,130.2H211.2l-25.4-124.8C185.8,379.9,183.6,363.5,195.3,363.5z"/>
			<path class="st22" d="M356.7,358.8c-8.4-0.4-112.9,4.3-159.3,4.7l143.2,141.2h51.4l-22.3-127.9
				C369.8,376.8,370,359.2,356.7,358.8z"/>
			
				<ellipse transform="matrix(0.9922 -0.1248 0.1248 0.9922 -52.6198 38.9403)" class="st23" cx="284.5" cy="439.5" rx="12.3" ry="14.1"/>
			<path class="st24" d="M107.3,472.8c101.7-15.4,204.5,80.6,212.8,88.5c0.4,0.4,0.5,0.5,0.5,0.5l-17.1,37.6
				c-13.6-7.9-100.4-23.9-100.4-23.9c10.8,24.6,15.4,102.1,22.6,155.5C233,784.4,279,837.4,279,837.4c-25.1-0.5-54.7,33.1-54.7,33.1
				c-1.7-5.2-14-3.5-14-3.5c0-0.8,0-1.7-0.3-2.9c-3.7-20.2-40-95.6-62.2-140.3c-46.2-59.8-46.7-199-46.7-209.3
				C101.1,504.2,95.9,491.6,107.3,472.8z"/>
			<path class="st18" d="M212.9,853.1c11.6-8,24-16.6,36.8-25c4.8-3.1,9.6-6.5,14.4-10.1c8.4,12,14.8,19.4,14.8,19.4
				c-25.1-0.5-54.7,33.1-54.7,33.1c-1.7-5.2-14-3.5-14-3.5c0-0.8,0-1.7-0.3-2.9C210.9,860.7,211.9,857,212.9,853.1z"/>
			<path d="M215.3,794.8c-11.6-22.3-65.4-235.2-68.7-250.2s-18.3-43.9-8.3-52.2c8.5-7.1,141.8,51.1,181.8,68.7
				c0.4,0.4,0.5,0.5,0.5,0.5l-17.1,37.6c-13.6-7.9-100.4-23.9-100.4-23.9C214,600,218.5,677.6,225.7,731
				c2.5,19.4,10.3,38.7,19.1,55.4c6.4,12.1,13.3,23,19.4,31.5c-4.9,3.6-9.7,7.1-14.4,10.1c-12.8,8.4-25.2,17-36.8,25
				c3.3-13.6,6.4-30.2,5.7-43.4C218.4,803.9,217.3,798.8,215.3,794.8z"/>
			<path class="st25" d="M281.5,641c16.8-43.1,31.9-128.4,96.6-119.2c64.7,9.1,95.4,8,184.6,55.8c0,0,32.3,13.3,24.3,36.3
				c-1.1,2.9-2.7,5.9-5.1,9.1c-21.6,28.6-65.9,47.8-132.3,13.5c-66.3-34.4-59.4-29.6-59.4-29.6s4.4,67.7-14.8,95.8
				c-19.2,28.2-76.6,93.2-125.7,125.5c-18.7,12.3-37,24.8-52.3,35.8c-3.7-10.9-12.5-32.4-31-51.9C196.4,772.4,268.5,674.9,281.5,641
				z"/>
			<path d="M218.7,809.6c8.9-7.9,17.8-15.6,26.2-23.2c35.4-32,66.1-59.4,71.5-70.1c22.3-43.8,23.2-99.4,34.8-145
				c11.6-45.5,48.1-34.8,70.5-28.2c18,5.3,124.7,52.6,165.5,70.7c-1.1,2.9-2.7,5.9-5.1,9.1c-21.6,28.6-65.9,47.8-132.3,13.5
				c-66.3-34.4-59.4-29.6-59.4-29.6s4.4,67.7-14.8,95.8c-17.5,25.4-65.9,80.9-111.5,115.2c-4.9,3.6-9.7,7.1-14.4,10.1
				c-12.8,8.4-25.2,17-36.8,25c-5.3,3.9-10.5,7.5-15.5,10.9c-2.1-6.3-5.9-15.9-12.1-26.6C196.5,828.4,207.7,819,218.7,809.6z"/>
			<g>
				<path class="st26" d="M106.7,927.5c-3.3-3.5-48.5-52.1-57.3-64.5c-0.7-0.8-1.3-1.7-2-2.7c-10-13.9-28.8-39.6-35.9-74.2
					c-4.8-23.2-7.6-38.8-2.9-44.6c1.7-2.1,4.5-3.2,9.1-3.2c0,0,0.4,0,0.5,0l133.8,95.3l11.7,53.1c-11.7,9.9-34,28.4-38,30.6
					c-0.9,0.5-2,1.3-3.5,2.5c-0.7,0.5-1.2,1.1-1.9,1.6c-3.5,3.1-7.3,6.5-11.3,6.5C108.1,928,107.3,927.9,106.7,927.5z"/>
				<path d="M17.5,739.5C17.6,739.5,17.6,739.5,17.5,739.5l133.1,94.8l11.5,51.8c-13.3,11.3-33.5,28-37.1,29.9
					c-1.1,0.5-2.3,1.3-3.7,2.7c-0.7,0.5-1.2,1.1-1.9,1.6c-3.2,2.9-6.9,6.3-10.4,6.3c-0.5,0-1.2,0-1.7-0.3
					c-4.7-5.1-48.3-52.2-57-64.2c-0.7-0.8-1.3-1.7-2-2.7c-10-13.7-28.6-39.4-35.6-73.7c-4.7-22.8-7.5-38.2-3.2-43.5
					C10.3,741.1,12.2,739.5,17.5,739.5L17.5,739.5 M17.5,736.9C1.1,737,2.4,749.8,10,786.4c7.7,37.2,28.8,64.5,38.2,77.4
					s57.5,64.9,57.5,64.9c1.1,0.5,2.3,0.8,3.3,0.8c5.2,0,10-5.1,14-8.5c1.2-1.1,2.3-1.9,3.3-2.4c5.3-2.9,38.8-31.4,38.8-31.4
					l-12.1-54.5L18.6,736.9C18.2,736.9,17.8,736.9,17.5,736.9L17.5,736.9z"/>
			</g>
			<path class="st27" d="M17.5,736.7c0.4,0,0.7,0,1.1,0l134.6,95.8l12.1,54.5c0,0-33.5,28.6-38.8,31.4c-1.1,0.5-2.1,1.3-3.3,2.4
				C104.4,904.8,3,812.5,17.5,736.7z"/>
			<path class="st27" d="M144.7,954.7c2.9-3.7,6.8-7.5,11.9-10.8c0,0,46.5-41.1,53.5-77l65.3-33.8l27.5,23c0,0,2.3,0.9,3.9,4
				c2.5,4.9,3.3,15.1-9.9,34.7c-21.5,31.8-101.5,124.3-158.3,83.3C136,973.1,137.5,963.9,144.7,954.7z"/>
			<path class="st28" d="M144.7,954.7c20.2-11.1,58.1-21.5,80-29.8c28.8-10.9,40.6-34.8,53.9-54.6c7.5-11.1,19.4-11.7,28.2-10.3
				c2.5,4.9,3.3,15.1-9.9,34.7c-21.5,31.8-101.5,124.3-158.3,83.3C136,973.1,137.5,963.9,144.7,954.7z"/>
			<path class="st17" d="M476.2,325.1l-14.6,83.6c9.9-1.3,15.9-13.3,16.4-22.7c0.5-9.3,6.4-9.6,9.3-9.6c11.7,5.1,21.9,29,21.9,29
				s0-45.5,0-56.2c0-10.7-6-12.3-6-12.3L476.2,325.1z"/>
			<path class="st17" d="M433.2,396.7c-10.1,0-13.9-22.7-12.9-27.6s-2.9-6.8-2.9-6.8c-5.2,6.7-12.8,8.8-12.8,8.8s2.3-3.6,8.8-11.5
				c6.5-7.9,12.9-25.8,14.6-31.5c1.6-5.7,8-4.1,8-4.1L433.2,396.7z"/>
			<ellipse class="st29" cx="397.4" cy="235.5" rx="10.5" ry="16.8"/>
			<path class="st18" d="M378.1,245c-0.5-6.3,20.2-10.5,20.2-10.5s4-36.8,17.6-44.9l23.1,3.5l56.2,8.5l1.3,53.1c0,0,9.5,10.4,3.3,25
				c-6.1,14.6-13.6,21-24.2,7.6c0,0-36.8,37.6-70.5,27.9c-5.6-1.6-10.9-4.5-16.2-9.1l2.9-49.7C391.9,256.4,378.6,251.4,378.1,245z"
				/>
			<path class="st30" d="M436.1,291.7c11.6-11.9,13.3-65.7,14.7-78.6c0.8-7.7-6.3-15.4-12-20l56.2,8.5l1.3,53.1c0,0,9.5,10.4,3.3,25
				c-6.1,14.6-13.6,21-24.2,7.6c0,0-36.8,37.6-70.5,27.9C415.6,310,428,300.1,436.1,291.7z"/>
			<path class="st31" d="M393.5,212.8c-0.9,0.3-3.2,4.9,0.9,4.4c4.1-0.5,6.3,0.7,11.2,4c3.1-2.4,2.3-5.6-3.7-8.3
				C397,210.8,394.5,212.5,393.5,212.8z"/>
			<path class="st32" d="M478.4,263.2c-6.1,5.9-14.1,3.2-19.5-0.3c-5.3-3.5-0.7-11.9,3.3-15.5c4.1-3.6,1.3-10.5,1.3-10.5
				s-16.6-6.7-16.3-19.2c0.1-12.5,29.4-9.3,29.4-9.3s-9.7-10-59-15.1s-43.5-35.6-36.6-53.3c6.9-17.6,36.2-13.3,40.8-6.8
				c4.7,6.5,20.7,15.5,20.7,15.5s5.1-7.9,33-3.2c28,4.7,24.2,38,24.2,38s25.6,9.1,27.5,40.8c2,31.8-29.4,47.3-29.4,47.3
				S484.6,257.2,478.4,263.2z"/>
			<path class="st31" d="M418.9,212.1c-1.3,0-5.9,5.7-0.3,6.5s8,3.3,13.2,9.9c4.9-2.3,5.1-7.2-1.9-13.1
				C424.2,210.7,420.2,212.1,418.9,212.1z"/>
			<path class="st33" d="M425.7,270.5c-8.4,7.7-17.6,3.3-17.6,3.3"/>
			<line class="st34" x1="433.2" y1="237.6" x2="466.2" y2="251.1"/>
			<line class="st34" x1="398.3" y1="232" x2="404.2" y2="232.7"/>
			<ellipse class="st34" cx="418.6" cy="235.5" rx="14.6" ry="16.8"/>
			
				<ellipse transform="matrix(0.1486 -0.9889 0.9889 0.1486 121.3961 616.9689)" class="st31" cx="419" cy="238" rx="6.4" ry="2.1"/>
			<line class="st35" x1="540.2" y1="424.8" x2="553.2" y2="521"/>
			<line class="st35" x1="544.4" y1="454.8" x2="528.1" y2="430"/>
			<path class="st35" d="M408.5,497.1c-0.4-20.3,26.2-32,26.2-32c-10.1-12.1,8.4-14.1,8.4-14.1l-3.2-21"/>
			<path class="st30" d="M185,837.5c6.3,10.7,10.1,20.3,12.1,26.6c-7.9,5.6-15.1,10.8-21.2,15.2c-0.9,0.7-1.9,1.3-2.8,2
				c-11.3,8.3-17.9,14.1-17.9,14.1l-16.7-24C153.5,861.7,169.4,850.1,185,837.5z"/>
			<path class="st18" d="M146.7,828.2l6.8,0.9c0,0,4.9-6.5,12.9-17.1c7.9,8.3,14.1,17.1,18.8,25.2c-16,12.7-31.9,24.4-46.7,34
				l-8.8-12.7C129.8,858.6,153.9,846.7,146.7,828.2z"/>
			<g>
				<path class="st36" d="M824.3,718.8H709.2c-11.6,12.7-11.1,118.5-11.1,118.5h134C839,778.1,824.3,718.8,824.3,718.8z"/>
				<line class="st37" x1="750.8" y1="706.2" x2="760.1" y2="319"/>
				<line class="st37" x1="761.2" y1="706.2" x2="783.6" y2="270.5"/>
				<line class="st37" x1="805.7" y1="540.5" x2="802.7" y2="702.7"/>
				<line class="st37" x1="781.1" y1="706.2" x2="783.6" y2="425.2"/>
				<path class="st38" d="M761.2,417.3c7.7,8,75.4,54.9,94.9,64.7c19.5,9.9,8.1-28.3-12.3-79.6S783.6,349.7,770,358
					C735.3,379,753.4,409.3,761.2,417.3z"/>
				<path class="st38" d="M856.1,681.6c3.9-98.6-46.7-113.3-83.7-86.9C676.7,663.2,852.2,780.2,856.1,681.6z"/>
				<path class="st39" d="M698.4,706.2c1.2,19.6,11.1,20.8,11.1,20.8s116,0.3,122.8-1.3c6.8-1.6,8.3-19.5,8.3-19.5s-20.2,0.5-79.4,0
					H698.4z"/>
				<path class="st40" d="M776.2,721.8c10.8,24,39.1,35.4,98,72.1c58.9,36.7,27.5-42.2,6.4-92.6c-21.1-50.5-55.8-56.7-82.4-46.6
					C761.2,668.9,765.4,697.7,776.2,721.8z"/>
				<path class="st40" d="M623,665.4c-16.2,67.5,20.2,62.6,36.3,57.3c16.2-5.3,51.4-41.1,103.3-82.8c51.9-41.6,47-100.2,0-108.3
					C647.4,512.1,639.2,597.9,623,665.4z"/>
				<path class="st40" d="M875.8,602.3c56.9,45.1,31.8-37.2,16.2-84.8c-15.6-47.5-61.4-83-92.2-56.9
					C735.4,515,819,557.2,875.8,602.3z"/>
				<path class="st40" d="M618.9,494.3c-13.3,40.2,82.9-11.2,122.1-27.9c39.2-16.6,55.5-63.4,10.8-85.7
					C679.7,345.1,632.2,454.3,618.9,494.3z"/>
				<path class="st40" d="M709.2,339.1c-12.1-4.4-55.4-17.2-63.3-29c-7.9-11.7,38.7-24.4,63.3-29.4c24.6-4.8,58.1,0.5,56.7,33.4
					C764.5,351.9,721.4,343.6,709.2,339.1z"/>
				<path class="st38" d="M799.7,273.5c-19.8,9.9-29.2,7.9-29.8-19.1c-0.5-27,53.1-35.9,82.8-16.7
					C869.4,248.4,819.4,263.6,799.7,273.5z"/>
			</g>
		</g>
		<g>
			<path class="st41" d="M162.2,154.7c-2-3.3-1.1-7.7,2.3-9.7l30.2-18.8c3.3-2,7.7-1.1,9.7,2.3l9.6,15.4c2,3.3,1.1,7.7-2.3,9.7
				l-30.2,18.8c-3.3,2-7.7,1.1-9.7-2.3L162.2,154.7z"/>
			<polyline class="st42" points="161.7,148.2 191.2,154.2 198.5,125 			"/>
			<circle class="st43" cx="161.4" cy="147.8" r="5.7"/>
		</g>
	</g>
</g>
</svg>
