<svg id="menu-right" xmlns="http://www.w3.org/2000/svg" width="20" height="14" viewBox="0 0 20 14">
  <path id="Path_847" data-name="Path 847" d="M22,18a1,1,0,0,1-1,1H13a1,1,0,1,1,0-1.99H21A1,1,0,0,1,22,18Z" transform="translate(-2 -5)"/>
  <path id="Path_848" data-name="Path 848" d="M22,12a1,1,0,0,1-1,1H3a1,1,0,1,1,0-1.99H21A1,1,0,0,1,22,12Z" transform="translate(-2 -5)"/>
  <path id="Path_849" data-name="Path 849" d="M21,6.99A1,1,0,1,0,21,5H9A1,1,0,0,0,9,6.99Z" transform="translate(-2 -5)"/>
</svg>
