<svg id="instagram" xmlns="http://www.w3.org/2000/svg" width="15.004" height="15.005" viewBox="0 0 15.004 15.005">
  <path id="Path_4" data-name="Path 4" d="M15.415,4.411a5.483,5.483,0,0,0-.349-1.821A3.844,3.844,0,0,0,12.869.4a5.5,5.5,0,0,0-1.82-.349C10.246.009,9.99,0,7.953,0S5.663.009,4.86.044A5.484,5.484,0,0,0,3.038.393,3.661,3.661,0,0,0,1.71,1.26,3.694,3.694,0,0,0,.845,2.589,5.5,5.5,0,0,0,.5,4.408C.458,5.212.449,5.467.449,7.5s.009,2.292.044,3.093a5.483,5.483,0,0,0,.349,1.821,3.843,3.843,0,0,0,2.2,2.2,5.5,5.5,0,0,0,1.821.349c.8.035,1.055.044,3.093.044s2.292-.009,3.093-.044a5.482,5.482,0,0,0,1.821-.349,3.838,3.838,0,0,0,2.2-2.2,5.5,5.5,0,0,0,.349-1.821c.035-.8.044-1.055.044-3.093S15.448,5.212,15.415,4.411Zm-1.35,6.126a4.113,4.113,0,0,1-.258,1.392,2.489,2.489,0,0,1-1.425,1.425,4.126,4.126,0,0,1-1.392.258c-.791.035-1.029.044-3.031.044s-2.242-.009-3.031-.044a4.111,4.111,0,0,1-1.394-.261,2.309,2.309,0,0,1-.862-.56,2.333,2.333,0,0,1-.56-.862,4.126,4.126,0,0,1-.258-1.392c-.035-.791-.044-1.029-.044-3.031s.009-2.242.044-3.031a4.111,4.111,0,0,1,.258-1.392,2.28,2.28,0,0,1,.563-.862,2.329,2.329,0,0,1,.862-.557,4.13,4.13,0,0,1,1.392-.258c.791-.035,1.029-.044,3.031-.044s2.242.009,3.031.044a4.113,4.113,0,0,1,1.392.258,2.307,2.307,0,0,1,.862.56,2.332,2.332,0,0,1,.56.862,4.129,4.129,0,0,1,.26,1.392c.035.791.044,1.029.044,3.031S14.1,9.746,14.064,10.538Zm0,0" transform="translate(-0.449 0)" fill="#fff"/>
  <path id="Path_5" data-name="Path 5" d="M128.788,124.5a3.839,3.839,0,1,0,3.839,3.839,3.839,3.839,0,0,0-3.839-3.839Zm0,6.329a2.49,2.49,0,1,1,2.49-2.49A2.49,2.49,0,0,1,128.788,130.829Zm0,0" transform="translate(-121.284 -120.835)" fill="#fff"/>
  <path id="Path_6" data-name="Path 6" d="M364.259,89.506a.9.9,0,1,1-.9-.9A.9.9,0,0,1,364.259,89.506Zm0,0" transform="translate(-351.846 -86.007)" fill="#fff"/>
</svg>
