<svg xmlns="http://www.w3.org/2000/svg" width="15.002" height="15.002" viewBox="0 0 15.002 15.002">
  <path id="linkedin" d="M13.645,0H1.357A1.357,1.357,0,0,0,0,1.357V13.645A1.357,1.357,0,0,0,1.357,15H13.645A1.357,1.357,0,0,0,15,13.645V1.357A1.357,1.357,0,0,0,13.645,0Zm-9,12.954a.4.4,0,0,1-.395.395H2.566a.4.4,0,0,1-.395-.395V5.907a.4.4,0,0,1,.395-.395H4.247a.4.4,0,0,1,.395.395ZM3.407,4.847A1.6,1.6,0,1,1,5,3.25a1.6,1.6,0,0,1-1.6,1.6Zm10.02,8.139a.363.363,0,0,1-.363.363h-1.8a.363.363,0,0,1-.363-.363V9.68c0-.493.145-2.161-1.289-2.161-1.112,0-1.337,1.142-1.382,1.65v3.813a.363.363,0,0,1-.363.363H6.119a.363.363,0,0,1-.363-.363V5.875a.363.363,0,0,1,.363-.363H7.863a.363.363,0,0,1,.363.363V6.49a2.475,2.475,0,0,1,2.329-1.1c2.889,0,2.872,2.7,2.872,4.181v3.411Z" fill="#fff"/>
</svg>
