<svg xmlns="http://www.w3.org/2000/svg" width="18.83" height="18" viewBox="0 0 18.83 18">
  <g id="linkedin-logo" transform="translate(0 -0.491)">
    <path id="Path_914" data-name="Path 914" d="M4.54,2.591a2.106,2.106,0,0,1-2.283,2.1H2.23a2.1,2.1,0,1,1,.052-4.2A2.1,2.1,0,0,1,4.54,2.591Zm-4.3,15.9H4.274V6.347H.237ZM14.183,6.063a4.01,4.01,0,0,0-3.639,2.005v.039h-.026a.2.2,0,0,0,.026-.039V6.348H6.508c.052,1.138,0,12.143,0,12.143h4.036V11.709a2.726,2.726,0,0,1,.133-.985,2.217,2.217,0,0,1,2.069-1.478c1.463,0,2.047,1.116,2.047,2.747v6.5H18.83V11.529C18.831,7.8,16.838,6.063,14.183,6.063Z" fill="#fff"/>
  </g>
</svg>
