<svg id="Logo" xmlns="http://www.w3.org/2000/svg" width="42.051" height="20.101" viewBox="0 0 42.051 20.101">
  <g id="Logo-Layers">
    <path id="Path_1" data-name="Path 1" d="M39.477,13.572h4.731L38.151,27.3H34.191L28.31,13.53h5l3,7.924Z" transform="translate(-15.226 -7.275)"/>
    <path id="Path_2" data-name="Path 2" d="M15.247,20H9.425L4.833,14.025v5.933L0,19.944.069,0h4.81L4.837,11.922,9.379,6.238h5.687L9.73,12.823Z"/>
    <path id="Path_3" data-name="Path 3" d="M73.669,7.56a7.012,7.012,0,0,1,1.192,4.459l-.051,8.212H70l.028-7.994a3.055,3.055,0,0,0-.42-1.848,1.571,1.571,0,0,0-1.331-.555,2.236,2.236,0,0,0-1.756.739,2.842,2.842,0,0,0-.67,1.964L65.823,20.2,61,20.18,61.083.24h4.81L65.865,8.1A5.036,5.036,0,0,1,70.1,6.053,4.341,4.341,0,0,1,73.669,7.56Z" transform="translate(-32.809 -0.129)"/>
  </g>
</svg>
