<svg id="maximize-alt" xmlns="http://www.w3.org/2000/svg" width="18" height="18" viewBox="0 0 18 18">
  <path id="Path_783" data-name="Path 783" d="M3,3H9V5H6.462L11.3,9.843,9.891,11.257,5,6.367V9H3Z" transform="translate(-3 -3)" fill="#fff"/>
  <path id="Path_784" data-name="Path 784" d="M3,21H9V19H6.376L11.3,14.072,9.89,12.658,5,17.548V15H3Z" transform="translate(-3 -3)" fill="#fff"/>
  <path id="Path_785" data-name="Path 785" d="M15,21h6V15H19v2.524l-4.867-4.867-1.414,1.414L17.647,19H15Z" transform="translate(-3 -3)" fill="#fff"/>
  <path id="Path_786" data-name="Path 786" d="M21,3H15V5h2.562L12.719,9.843l1.414,1.414L19,6.39V9h2Z" transform="translate(-3 -3)" fill="#fff"/>
</svg>
